# Blender v2.76 (sub 0) OBJ File: 'cursor.blend'
# www.blender.org
o Cube
v -0.557671 -0.427465 0.185890
v -0.557671 -0.427465 -0.185890
v -0.557671 -0.500000 -0.185890
v -0.557671 -0.500000 0.185890
v 0.557671 -0.427465 -0.185890
v 0.557671 -0.427465 0.185890
v 0.557671 -0.500000 0.185890
v 0.557671 -0.500000 -0.185890
v -0.185890 -0.427465 -0.557671
v 0.185890 -0.427465 -0.557671
v 0.185890 -0.500000 -0.557671
v -0.185890 -0.500000 -0.557671
v 0.185890 -0.427465 0.557671
v -0.185890 -0.427465 0.557671
v -0.185890 -0.500000 0.557671
v 0.185890 -0.500000 0.557671
v 0.241657 -0.500000 -0.501904
v 0.501904 -0.500000 -0.501904
v 0.501904 -0.500000 -0.241657
v -0.241657 -0.427465 -0.501904
v -0.501904 -0.427465 -0.501904
v -0.501904 -0.427465 -0.241657
v -0.241657 -0.427465 0.501904
v -0.501904 -0.427465 0.241657
v -0.501904 -0.427465 0.501904
v 0.241657 -0.500000 0.501904
v 0.501904 -0.500000 0.241657
v 0.501904 -0.500000 0.501904
v -0.501904 -0.500000 0.501904
v -0.501904 -0.500000 0.241657
v -0.241657 -0.500000 0.501904
v 0.501904 -0.427465 0.501904
v 0.501904 -0.427465 0.241657
v 0.241657 -0.427465 0.501904
v 0.501904 -0.427465 -0.241657
v 0.501904 -0.427465 -0.501904
v 0.241657 -0.427465 -0.501904
v -0.501904 -0.500000 -0.241657
v -0.501904 -0.500000 -0.501904
v -0.241657 -0.500000 -0.501904
v -0.501904 -0.500000 0.557671
v -0.557671 -0.500000 0.501904
v -0.518237 -0.500000 0.518237
v -0.529787 -0.500000 0.550199
v -0.550199 -0.500000 0.529787
v -0.557671 -0.427465 0.501904
v -0.501904 -0.427465 0.557671
v -0.518237 -0.427465 0.518237
v -0.550199 -0.427465 0.529787
v -0.529787 -0.427465 0.550199
v -0.557671 -0.500000 -0.501904
v -0.501904 -0.500000 -0.557671
v -0.518237 -0.500000 -0.518237
v -0.550199 -0.500000 -0.529787
v -0.529787 -0.500000 -0.550199
v -0.501904 -0.427465 -0.557671
v -0.557671 -0.427465 -0.501904
v -0.518237 -0.427465 -0.518237
v -0.529787 -0.427465 -0.550199
v -0.550199 -0.427465 -0.529787
v 0.557671 -0.500000 0.501904
v 0.501904 -0.500000 0.557671
v 0.518237 -0.500000 0.518237
v 0.550199 -0.500000 0.529787
v 0.529787 -0.500000 0.550199
v 0.501904 -0.427465 0.557671
v 0.557671 -0.427465 0.501904
v 0.518237 -0.427465 0.518237
v 0.529787 -0.427465 0.550199
v 0.550199 -0.427465 0.529787
v 0.501904 -0.500000 -0.557671
v 0.557671 -0.500000 -0.501904
v 0.518237 -0.500000 -0.518237
v 0.529787 -0.500000 -0.550199
v 0.550199 -0.500000 -0.529787
v 0.557671 -0.427465 -0.501904
v 0.501904 -0.427465 -0.557671
v 0.518237 -0.427465 -0.518237
v 0.550199 -0.427465 -0.529787
v 0.529787 -0.427465 -0.550199
vt 0.975528 0.654508
vt 0.206107 0.095492
vt 0.024472 0.654509
vt 1.000000 0.000000
vt 1.000000 1.000000
vt 0.000000 1.000000
vt 0.000000 0.000000
vt 0.500000 1.000000
vt 0.793893 0.095491
vn 0.000000 -1.000000 0.000000
vn -1.000000 0.000000 0.000000
vn 0.000000 0.000000 1.000000
vn 0.000000 1.000000 0.000000
vn 0.000000 0.000000 -1.000000
vn 0.707100 0.000000 0.707100
vn 0.707100 0.000000 -0.707100
vn -0.707100 0.000000 0.707100
vn 1.000000 0.000000 0.000000
vn -0.707100 0.000000 -0.707100
vn -0.258800 0.000000 0.965900
vn -0.965900 0.000000 0.258800
vn -0.258800 0.000000 -0.965900
vn -0.965900 0.000000 -0.258800
vn 0.965900 0.000000 -0.258800
vn 0.258800 0.000000 -0.965900
vn 0.258800 0.000000 0.965900
vn 0.965900 0.000000 0.258800
s off
f 51/1/1 39/2/1 38/3/1
f 71/1/1 18/2/1 17/3/1
f 61/1/1 28/2/1 27/3/1
f 41/1/1 29/2/1 31/3/1
f 72/1/1 19/2/1 18/3/1
f 42/1/1 30/2/1 29/3/1
f 36/4/2 18/5/2 19/6/2
f 62/1/1 26/2/1 28/3/1
f 52/1/1 40/2/1 39/3/1
f 17/4/3 18/5/3 36/6/3
f 77/1/4 37/2/4 36/3/4
f 77/4/5 71/5/5 11/6/5
f 9/4/6 20/5/6 40/6/6
f 13/4/3 16/5/3 62/6/3
f 56/1/4 21/2/4 20/3/4
f 38/4/6 22/5/6 2/6/6
f 1/4/7 24/5/7 30/6/7
f 31/4/7 23/5/7 14/6/7
f 9/4/5 12/5/5 52/6/5
f 46/1/4 25/2/4 24/3/4
f 37/4/8 10/5/8 11/6/8
f 35/4/8 19/5/8 8/6/8
f 67/1/4 33/2/4 32/3/4
f 67/4/9 61/5/9 7/6/9
f 47/4/3 41/5/3 15/6/3
f 7/4/10 27/5/10 33/6/10
f 16/4/10 13/5/10 34/6/10
f 47/1/4 23/2/4 25/3/4
f 66/1/4 32/2/4 34/3/4
f 39/4/3 40/5/3 20/6/3
f 38/4/9 39/5/9 21/6/9
f 5/4/9 8/5/9 72/6/9
f 76/1/4 36/2/4 35/3/4
f 29/4/9 30/5/9 24/6/9
f 31/4/5 29/5/5 25/6/5
f 57/1/4 22/2/4 21/3/4
f 57/4/2 51/5/2 3/6/2
f 32/4/5 28/5/5 26/6/5
f 27/4/2 28/5/2 32/6/2
f 41/7/1 44/4/1 43/5/1
f 44/7/1 45/4/1 43/5/1
f 45/7/1 42/4/1 43/5/1
f 46/7/4 49/4/4 48/5/4
f 49/7/4 50/4/4 48/5/4
f 50/7/4 47/4/4 48/5/4
f 51/7/1 54/4/1 53/5/1
f 54/7/1 55/4/1 53/5/1
f 55/7/1 52/4/1 53/5/1
f 56/7/4 59/4/4 58/5/4
f 59/7/4 60/4/4 58/5/4
f 60/7/4 57/4/4 58/5/4
f 61/7/1 64/4/1 63/5/1
f 64/7/1 65/4/1 63/5/1
f 65/7/1 62/4/1 63/5/1
f 66/7/4 69/4/4 68/5/4
f 69/7/4 70/4/4 68/5/4
f 70/7/4 67/4/4 68/5/4
f 71/7/1 74/4/1 73/5/1
f 74/7/1 75/4/1 73/5/1
f 75/7/1 72/4/1 73/5/1
f 76/7/4 79/4/4 78/5/4
f 79/7/4 80/4/4 78/5/4
f 80/7/4 77/4/4 78/5/4
f 47/4/11 50/5/11 44/6/11
f 50/4/8 49/5/8 45/6/8
f 49/4/12 46/5/12 42/6/12
f 52/4/13 55/5/13 59/6/13
f 55/4/10 54/5/10 60/6/10
f 54/4/14 51/5/14 57/6/14
f 72/4/15 75/5/15 79/6/15
f 75/4/7 74/5/7 80/6/7
f 74/4/16 71/5/16 77/6/16
f 62/4/17 65/5/17 69/6/17
f 65/4/6 64/5/6 70/6/6
f 64/4/18 61/5/18 67/6/18
f 1/4/2 4/5/2 42/6/2
f 38/3/1 3/8/1 51/1/1
f 51/1/1 53/9/1 39/2/1
f 17/3/1 11/8/1 71/1/1
f 71/1/1 73/9/1 18/2/1
f 27/3/1 7/8/1 61/1/1
f 61/1/1 63/9/1 28/2/1
f 31/3/1 15/8/1 41/1/1
f 41/1/1 43/9/1 29/2/1
f 18/3/1 73/8/1 72/1/1
f 72/1/1 8/9/1 19/2/1
f 29/3/1 43/8/1 42/1/1
f 42/1/1 4/9/1 30/2/1
f 35/7/2 36/4/2 19/6/2
f 28/3/1 63/8/1 62/1/1
f 62/1/1 16/9/1 26/2/1
f 39/3/1 53/8/1 52/1/1
f 52/1/1 12/9/1 40/2/1
f 37/7/3 17/4/3 36/6/3
f 36/3/4 78/8/4 77/1/4
f 77/1/4 10/9/4 37/2/4
f 10/7/5 77/4/5 11/6/5
f 12/7/6 9/4/6 40/6/6
f 66/7/3 13/4/3 62/6/3
f 20/3/4 9/8/4 56/1/4
f 56/1/4 58/9/4 21/2/4
f 3/7/6 38/4/6 2/6/6
f 4/7/7 1/4/7 30/6/7
f 15/7/7 31/4/7 14/6/7
f 56/7/5 9/4/5 52/6/5
f 24/3/4 1/8/4 46/1/4
f 46/1/4 48/9/4 25/2/4
f 17/7/8 37/4/8 11/6/8
f 5/7/8 35/4/8 8/6/8
f 32/3/4 68/8/4 67/1/4
f 67/1/4 6/9/4 33/2/4
f 6/7/9 67/4/9 7/6/9
f 14/7/3 47/4/3 15/6/3
f 6/7/10 7/4/10 33/6/10
f 26/7/10 16/4/10 34/6/10
f 25/3/4 48/8/4 47/1/4
f 47/1/4 14/9/4 23/2/4
f 34/3/4 13/8/4 66/1/4
f 66/1/4 68/9/4 32/2/4
f 21/7/3 39/4/3 20/6/3
f 22/7/9 38/4/9 21/6/9
f 76/7/9 5/4/9 72/6/9
f 35/3/4 5/8/4 76/1/4
f 76/1/4 78/9/4 36/2/4
f 25/7/9 29/4/9 24/6/9
f 23/7/5 31/4/5 25/6/5
f 21/3/4 58/8/4 57/1/4
f 57/1/4 2/9/4 22/2/4
f 2/7/2 57/4/2 3/6/2
f 34/7/5 32/4/5 26/6/5
f 33/7/2 27/4/2 32/6/2
f 41/7/11 47/4/11 44/6/11
f 44/7/8 50/4/8 45/6/8
f 45/7/12 49/4/12 42/6/12
f 56/7/13 52/4/13 59/6/13
f 59/7/10 55/4/10 60/6/10
f 60/7/14 54/4/14 57/6/14
f 76/7/15 72/4/15 79/6/15
f 79/7/7 75/4/7 80/6/7
f 80/7/16 74/4/16 77/6/16
f 66/7/17 62/4/17 69/6/17
f 69/7/6 65/4/6 70/6/6
f 70/7/18 64/4/18 67/6/18
f 46/7/2 1/4/2 42/6/2
