# Blender v2.76 (sub 0) OBJ File: ''
# www.blender.org
o Sphere
v -0.414064 0.999638 0.000000
v -0.765090 0.765090 0.000000
v -0.999638 0.414063 0.000000
v -1.082000 -0.000000 0.000000
v -0.999638 -0.414064 0.000000
v -0.765090 -0.765090 0.000000
v -0.414064 -0.999638 0.000000
v -0.292787 0.999638 -0.292787
v -0.541000 0.765090 -0.541000
v -0.706851 0.414063 -0.706850
v -0.765090 -0.000000 -0.765089
v -0.706851 -0.414064 -0.706850
v -0.541000 -0.765090 -0.541000
v -0.292787 -0.999638 -0.292787
v -0.000000 0.999638 -0.414063
v -0.000000 0.765090 -0.765089
v -0.000000 0.414063 -0.999637
v -0.000000 -0.000000 -1.082000
v -0.000000 -0.414064 -0.999637
v -0.000000 -0.765090 -0.765089
v -0.000000 -0.999638 -0.414063
v -0.000000 1.082000 0.000000
v 0.292787 0.999638 -0.292787
v 0.541000 0.765090 -0.541000
v 0.706850 0.414063 -0.706850
v 0.765089 -0.000000 -0.765089
v 0.706850 -0.414064 -0.706850
v 0.541000 -0.765090 -0.541000
v 0.292787 -0.999638 -0.292787
v 0.414063 0.999638 -0.000000
v 0.765089 0.765090 -0.000000
v 0.999637 0.414063 -0.000000
v 1.082000 -0.000000 -0.000000
v 0.999637 -0.414064 -0.000000
v 0.765089 -0.765090 -0.000000
v 0.414063 -0.999638 -0.000000
v -0.000000 -1.082000 0.000000
v 0.292787 0.999638 0.292787
v 0.541000 0.765090 0.541000
v 0.706850 0.414063 0.706850
v 0.765089 -0.000000 0.765089
v 0.706850 -0.414064 0.706850
v 0.541000 -0.765090 0.541000
v 0.292787 -0.999638 0.292787
v -0.000000 0.999638 0.414063
v -0.000000 0.765090 0.765089
v -0.000000 0.414063 0.999637
v -0.000000 -0.000000 1.082000
v -0.000000 -0.414064 0.999637
v -0.000000 -0.765090 0.765089
v -0.000000 -0.999638 0.414063
v -0.292787 0.999638 0.292787
v -0.541000 0.765090 0.541000
v -0.706850 0.414063 0.706850
v -0.765089 -0.000000 0.765089
v -0.706850 -0.414064 0.706850
v -0.541000 -0.765090 0.541000
v -0.292787 -0.999638 0.292787
vt 0.145670 0.589450
vt 0.266347 0.589450
vt 0.284845 0.694469
vt 0.127172 0.916657
vt 0.284844 0.916657
vt 0.266347 1.000000
vt 0.120677 0.809368
vt 0.127172 0.694468
vt 0.173354 0.510301
vt 0.238664 0.510301
vt 0.962106 0.816135
vt 0.877178 0.929674
vt 0.844931 0.835763
vt 0.291340 0.809368
vt 0.902614 0.997525
vt 0.745687 0.999486
vt 0.633317 0.020768
vt 0.612886 0.168419
vt 0.526126 0.159817
vt 0.489967 0.916392
vt 0.554968 0.917204
vt 0.587215 0.999486
vt 0.757071 0.931174
vt 0.779929 0.836575
vt 0.465544 0.020768
vt 0.548240 0.000000
vt 0.707822 0.079908
vt 0.692185 0.192916
vt 0.672143 0.819757
vt 0.526126 0.385832
vt 0.445113 0.377230
vt 0.692185 0.352733
vt 0.445113 0.168419
vt 0.382181 0.352733
vt 0.612886 0.377230
vt 0.600931 0.856906
vt 0.672143 0.888069
vt 0.382181 0.134763
vt 0.292536 0.245690
vt 0.240232 0.153614
vt 0.707822 0.465740
vt 0.633317 0.524881
vt 0.245241 0.000000
vt 0.323053 0.051131
vt 0.548240 0.545649
vt 0.600931 0.770819
vt 0.733967 0.776277
vt 0.672143 0.660689
vt 0.181853 0.078437
vt 0.107509 0.266338
vt 0.330802 0.340646
vt 0.198079 0.453369
vt 0.148877 0.367701
vt 0.672143 0.729000
vt 0.554968 0.709372
vt 0.080271 0.164712
vt 0.071311 0.078295
vt 0.349205 0.424026
vt 0.247622 0.510301
vt 0.093200 0.510301
vt 0.489967 0.708560
vt 0.467109 0.613960
vt 0.757071 0.547149
vt 0.877178 0.545649
vt 0.844931 0.627930
vt 0.035357 0.429323
vt 0.002630 0.323270
vt 0.587215 0.615461
vt 0.455725 0.545649
vt 0.000000 0.208286
vt 0.962106 0.657066
vt 0.707822 0.204686
vt 0.877995 0.187580
vt 0.878085 0.302801
vt 0.721849 0.012096
vt 0.842179 0.000000
vt 0.865387 0.081250
vt 0.720865 0.318605
vt 0.865643 0.409372
vt 0.708167 0.097054
vt 0.444004 0.768858
vt 0.382181 0.725378
vt 0.444004 0.854945
vt 0.520819 0.815045
vt 0.810781 0.730090
vt 0.890893 0.774316
vt 0.733967 0.690189
vt 0.779929 0.628742
vt 0.890893 0.688229
vt 0.060339 0.568741
vt 0.990803 0.318605
vt 0.951913 0.421468
vt 0.015681 0.667411
vt 0.382181 0.884446
vt 1.000000 0.204686
vt 0.145670 1.000000
vt 0.467109 0.997985
vt 0.382181 0.192916
vt 0.126287 0.031603
vt 0.612651 0.547609
vt 0.745312 0.421468
vt 0.000000 0.780082
vn -0.786200 0.525300 -0.325600
vn -0.786200 -0.525300 -0.325600
vn -0.908700 0.180700 -0.376400
vn -0.541400 0.810300 -0.224300
vn -0.541400 -0.810300 -0.224300
vn -0.908700 -0.180700 -0.376400
vn -0.325600 -0.525300 -0.786200
vn -0.376400 0.180700 -0.908700
vn -0.224300 0.810300 -0.541400
vn -0.224300 -0.810300 -0.541400
vn -0.376400 -0.180700 -0.908700
vn -0.325600 0.525300 -0.786200
vn 0.224300 -0.810300 -0.541400
vn 0.376400 -0.180700 -0.908700
vn 0.325600 0.525300 -0.786200
vn 0.325600 -0.525300 -0.786200
vn 0.376400 0.180700 -0.908700
vn 0.224300 0.810300 -0.541400
vn 0.908700 -0.180700 -0.376400
vn 0.786200 0.525300 -0.325600
vn 0.786200 -0.525300 -0.325600
vn 0.908700 0.180700 -0.376400
vn 0.541400 0.810300 -0.224300
vn 0.541400 -0.810300 -0.224300
vn 0.786200 -0.525300 0.325600
vn 0.908700 0.180700 0.376400
vn 0.541400 0.810300 0.224300
vn 0.541400 -0.810300 0.224300
vn 0.908700 -0.180700 0.376400
vn 0.786200 0.525300 0.325600
vn 0.376400 0.180700 0.908700
vn 0.224300 0.810300 0.541400
vn 0.224300 -0.810300 0.541400
vn 0.376400 -0.180700 0.908700
vn 0.325600 0.525300 0.786200
vn 0.325600 -0.525300 0.786200
vn -0.224300 -0.810300 0.541400
vn -0.376400 -0.180700 0.908700
vn -0.325600 0.525300 0.786200
vn -0.325600 -0.525300 0.786200
vn -0.376400 0.180700 0.908700
vn -0.224300 0.810300 0.541400
vn -0.194500 0.977600 -0.080500
vn -0.194500 -0.977600 -0.080500
vn -0.080500 0.977600 -0.194500
vn -0.080500 -0.977600 -0.194500
vn 0.080500 0.977600 -0.194500
vn 0.080500 -0.977600 -0.194500
vn 0.194500 0.977600 -0.080500
vn 0.194500 -0.977600 -0.080500
vn 0.194500 -0.977600 0.080500
vn 0.194500 0.977600 0.080500
vn 0.080500 0.977600 0.194500
vn 0.080500 -0.977600 0.194500
vn -0.080500 0.977600 0.194500
vn -0.080500 -0.977600 0.194500
vn -0.786200 0.525300 0.325600
vn -0.194500 0.977600 0.080500
vn -0.194500 -0.977600 0.080500
vn -0.786200 -0.525300 0.325600
vn -0.908700 0.180700 0.376400
vn -0.541400 0.810300 0.224300
vn -0.541400 -0.810300 0.224300
vn -0.908700 -0.180700 0.376400
s off
f 2/1/1 9/2/1 10/3/1
f 5/4/2 12/5/2 13/6/2
f 4/7/3 3/8/3 10/3/3
f 1/9/4 8/10/4 9/2/4
f 6/11/5 13/12/5 14/13/5
f 4/7/6 11/14/6 12/5/6
f 13/12/7 12/15/7 19/16/7
f 10/17/8 17/18/8 18/19/8
f 8/20/9 15/21/9 16/22/9
f 13/12/10 20/23/10 21/24/10
f 12/25/11 11/26/11 18/19/11
f 9/27/12 16/28/12 17/18/12
f 21/24/13 20/23/13 28/29/13
f 18/19/14 26/30/14 27/31/14
f 17/18/15 16/28/15 24/32/15
f 19/33/16 27/31/16 28/34/16
f 17/18/17 25/35/17 26/30/17
f 15/21/18 23/36/18 24/37/18
f 26/38/19 33/39/19 34/40/19
f 24/32/20 31/41/20 32/42/20
f 28/43/21 27/44/21 34/40/21
f 25/35/22 32/42/22 33/45/22
f 24/37/23 23/36/23 30/46/23
f 29/47/24 28/29/24 35/48/24
f 35/49/25 34/40/25 42/50/25
f 32/51/26 40/52/26 41/53/26
f 31/54/27 30/46/27 38/55/27
f 35/49/28 43/56/28 44/57/28
f 33/39/29 41/53/29 42/50/29
f 31/58/30 39/59/30 40/52/30
f 41/53/31 40/52/31 47/60/31
f 38/55/32 45/61/32 46/62/32
f 43/63/33 50/64/33 51/65/33
f 41/53/34 48/66/34 49/67/34
f 39/68/35 46/62/35 47/69/35
f 42/50/36 49/67/36 50/70/36
f 51/65/37 50/64/37 57/71/37
f 48/72/38 55/73/38 56/74/38
f 46/75/39 53/76/39 54/77/39
f 49/78/40 56/74/40 57/79/40
f 47/80/41 54/77/41 55/73/41
f 45/61/42 52/81/42 53/82/42
f 1/83/43 22/84/43 8/20/43
f 37/85/44 7/86/44 14/13/44
f 8/20/45 22/84/45 15/21/45
f 37/85/46 14/13/46 21/24/46
f 15/21/47 22/84/47 23/36/47
f 37/85/48 21/24/48 29/47/48
f 23/36/49 22/84/49 30/46/49
f 37/85/50 29/47/50 36/87/50
f 37/85/51 36/87/51 44/88/51
f 30/46/52 22/84/52 38/55/52
f 38/55/53 22/84/53 45/61/53
f 37/85/54 44/88/54 51/65/54
f 45/61/55 22/84/55 52/81/55
f 37/85/56 51/65/56 58/89/56
f 53/90/57 2/1/57 3/8/57
f 52/81/58 22/84/58 1/83/58
f 37/85/59 58/89/59 7/86/59
f 56/74/60 5/91/60 6/92/60
f 54/93/61 3/8/61 4/7/61
f 52/81/62 1/83/62 2/94/62
f 57/71/63 6/11/63 7/86/63
f 55/73/64 4/95/64 5/91/64
f 3/8/1 2/1/1 10/3/1
f 6/96/2 5/4/2 13/6/2
f 11/14/3 4/7/3 10/3/3
f 2/1/4 1/9/4 9/2/4
f 7/86/5 6/11/5 14/13/5
f 5/4/6 4/7/6 12/5/6
f 20/23/7 13/12/7 19/16/7
f 11/26/8 10/17/8 18/19/8
f 9/97/9 8/20/9 16/22/9
f 14/13/10 13/12/10 21/24/10
f 19/33/11 12/25/11 18/19/11
f 10/17/12 9/27/12 17/18/12
f 29/47/13 21/24/13 28/29/13
f 19/33/14 18/19/14 27/31/14
f 25/35/15 17/18/15 24/32/15
f 20/98/16 19/33/16 28/34/16
f 18/19/17 17/18/17 26/30/17
f 16/22/18 15/21/18 24/37/18
f 27/44/19 26/38/19 34/40/19
f 25/35/20 24/32/20 32/42/20
f 35/49/21 28/43/21 34/40/21
f 26/30/22 25/35/22 33/45/22
f 31/54/23 24/37/23 30/46/23
f 36/87/24 29/47/24 35/48/24
f 43/56/25 35/49/25 42/50/25
f 33/39/26 32/51/26 41/53/26
f 39/68/27 31/54/27 38/55/27
f 36/99/28 35/49/28 44/57/28
f 34/40/29 33/39/29 42/50/29
f 32/51/30 31/58/30 40/52/30
f 48/66/31 41/53/31 47/60/31
f 39/68/32 38/55/32 46/62/32
f 44/88/33 43/63/33 51/65/33
f 42/50/34 41/53/34 49/67/34
f 40/100/35 39/68/35 47/69/35
f 43/56/36 42/50/36 50/70/36
f 58/89/37 51/65/37 57/71/37
f 49/78/38 48/72/38 56/74/38
f 47/80/39 46/75/39 54/77/39
f 50/101/40 49/78/40 57/79/40
f 48/72/41 47/80/41 55/73/41
f 46/62/42 45/61/42 53/82/42
f 54/93/57 53/90/57 3/8/57
f 57/79/60 56/74/60 6/92/60
f 55/102/61 54/93/61 4/7/61
f 53/82/62 52/81/62 2/94/62
f 58/89/63 57/71/63 7/86/63
f 56/74/64 55/73/64 5/91/64
