# Blender v2.76 (sub 0) OBJ File: ''
# www.blender.org
o Cube
v 1.000000 -1.000000 -1.000000
v 1.000000 -1.000000 1.000000
v -1.000000 -1.000000 1.000000
v -1.000000 -1.000000 -1.000000
v 1.000000 1.000000 -0.999999
v 0.999999 1.000000 1.000001
v -1.000000 1.000000 1.000000
v -1.000000 1.000000 -1.000000
v 1.000000 -1.000000 0.000000
v 0.000000 -1.000000 -1.000000
v 1.000000 0.000000 -1.000000
v 0.000000 -1.000000 1.000000
v 1.000000 0.000000 1.000000
v -1.000000 -1.000000 -0.000000
v -1.000000 0.000000 1.000000
v -1.000000 0.000000 -1.000000
v 1.000000 1.000000 0.000001
v 0.000000 1.000000 -1.000000
v -0.000001 1.000000 1.000000
v -1.000000 1.000000 -0.000000
v 0.000000 1.588932 -0.500000
v 0.000000 2.396491 -0.500000
v 2.232406 0.000000 -0.499999
v 1.000000 0.000000 0.000000
v -2.102829 -0.000000 0.499999
v 0.000000 -1.000000 -0.000000
v 1.000000 -1.000000 0.500000
v -0.500000 -1.000000 -1.000000
v 1.000000 0.500000 -1.000000
v -0.500000 -1.000000 1.000000
v 1.000000 0.500000 1.000000
v -1.000000 -1.000000 -0.500000
v -1.000000 0.500000 1.000000
v -1.000000 0.500000 -1.000000
v 1.000000 1.000000 0.500001
v -0.500000 1.000000 -1.000000
v -0.500000 1.000000 1.000000
v -1.000000 1.000000 -0.500000
v 1.000000 -1.000000 -0.500000
v 0.500000 -1.000000 -1.000000
v 1.000000 -0.500000 -1.000000
v 0.500000 -1.000000 1.000000
v 1.000000 -0.500000 1.000000
v -1.000000 -1.000000 0.500000
v -1.000000 -0.500000 1.000000
v -1.000000 -0.500000 -1.000000
v 1.000000 1.000000 -0.499999
v 0.500000 1.000000 -1.000000
v 0.499999 1.000000 1.000000
v -1.000000 1.000000 0.500000
v -0.500000 0.000000 -1.000000
v 0.500000 0.000000 -1.000000
v 0.000000 0.500000 -1.000000
v 0.000000 -0.500000 -1.000000
v -1.000000 0.000000 -0.500000
v -1.000000 0.000000 0.500000
v -1.000000 -0.500000 -0.000000
v -1.000000 0.500000 -0.000000
v -0.500000 0.000000 1.000000
v 0.500000 0.000000 1.000000
v -0.000000 -0.500000 1.000000
v -0.000000 0.500000 1.000000
v 1.000000 0.000000 0.500000
v 1.000000 0.000000 -0.500000
v 1.000000 -0.500000 0.000000
v 1.000000 0.500000 0.000000
v -0.000000 1.000000 0.500000
v 0.000000 1.000000 -0.500000
v 0.500000 1.000000 0.000000
v -0.500000 1.000000 0.000000
v -0.500000 -1.000000 -0.000000
v 0.500000 -1.000000 -0.000000
v 0.000000 -1.000000 -0.500000
v 0.000000 -1.000000 0.500000
v 0.500000 -1.000000 0.500000
v 0.500000 -1.000000 -0.500000
v -0.500000 -1.000000 -0.500000
v -0.500000 1.000000 -0.500000
v 0.500000 1.000000 -0.500000
v 0.500000 1.000000 0.500000
v 1.000000 0.500000 -0.500000
v 1.000000 -0.500000 -0.500000
v 1.000000 -0.500000 0.500000
v 0.500000 0.500000 1.000000
v 0.500000 -0.500000 1.000000
v -0.500000 -0.500000 1.000000
v -1.000000 0.500000 0.500000
v -1.000000 -0.500000 0.500000
v -1.000000 -0.500000 -0.500000
v 0.500000 -0.500000 -1.000000
v 0.500000 0.500000 -1.000000
v -0.500000 0.500000 -1.000000
v -0.500000 -0.500000 -1.000000
v -1.000000 0.500000 -0.500000
v -0.500000 0.500000 1.000000
v 1.000000 0.500000 0.500000
v -0.500000 1.000000 0.500000
v -0.500000 -1.000000 0.500000
v 0.500001 0.000000 -2.481973
v 0.000001 0.000000 -2.481973
v 0.000001 -0.500000 -2.481973
v -0.499999 0.000000 -2.481973
v 0.000001 0.500000 -2.481973
v 0.500001 -0.500000 -2.481973
v 0.500001 0.500000 -2.481973
v -0.499999 0.500000 -2.481973
v -0.499999 -0.500000 -2.481973
v -0.000000 1.588932 0.000000
v -0.500000 1.588932 0.000000
v -0.000000 1.588932 0.500000
v 0.500000 1.588932 0.000000
v -0.500000 1.588932 -0.500000
v 0.500000 1.588932 -0.500000
v 0.500000 1.588932 0.500000
v -0.500000 1.588932 0.500000
v -2.102829 -0.000000 -0.000001
v -2.102829 0.500000 -0.000000
v -2.102829 -0.000000 -0.500000
v -2.102829 -0.500000 -0.000001
v -2.102829 0.500000 0.499999
v -2.102829 -0.500000 0.499999
v -2.102829 -0.500000 -0.500000
v -2.102829 0.500000 -0.500000
v -0.000000 2.396491 0.000000
v 0.500000 2.396491 0.000000
v 0.500000 2.396491 -0.500000
v -1.300319 -0.500000 -0.000000
v -1.300319 -0.500000 0.500000
v -1.300319 0.500000 -0.500000
v -1.300319 -0.000000 -0.500000
v -1.300319 0.500000 0.500000
v -1.300319 -0.000000 0.500000
v -1.300319 -0.500000 -0.500000
v -1.300319 0.500000 -0.000000
v -1.726993 -0.500000 0.500000
v -1.726993 -0.000000 -0.500000
v -1.726993 0.500000 0.500000
v -1.726993 -0.500000 -0.500000
v -1.726993 0.500000 -0.000000
v -1.726993 -0.500000 -0.000000
v -1.726993 0.500000 -0.500000
v -1.726993 -0.000000 0.500000
v -1.726993 0.500000 -0.853325
v -1.300319 0.500000 -0.853325
v -1.300319 0.000000 -0.853325
v -1.726993 0.000000 -0.853325
v -1.726993 -0.500000 0.665208
v -2.102829 -0.500000 0.665208
v -2.102829 -0.000000 0.665208
v -1.726993 -0.000000 0.665208
v 0.499999 -0.000000 3.074556
v -0.000001 -0.000000 3.074556
v -0.000001 0.500000 3.074556
v -0.500001 -0.000000 3.074556
v -0.000001 -0.500000 3.074556
v 0.499999 0.500000 3.074556
v 0.499999 -0.500000 3.074556
v -0.500001 -0.500000 3.074556
v -0.500001 0.500000 3.074556
v 2.232405 0.000000 0.000001
v 2.232405 0.500000 0.000001
v 2.232405 0.000000 0.500001
v 2.232405 -0.500000 0.000001
v 2.232406 0.500000 -0.499999
v 2.232405 -0.500000 -0.499999
v 2.232405 0.500000 0.500001
v 0.500000 -2.708053 1.000000
v 0.000000 -2.708053 1.000000
v 0.500000 -2.708053 -0.000000
v 0.000000 -2.708053 -0.000000
v 0.000000 -2.708053 0.500000
v -0.500000 -2.708053 -0.000000
v 0.000000 -2.708053 -0.500000
v 0.500000 -2.708053 0.500000
v 0.500000 -2.708053 -0.500000
v -0.500000 -2.708053 0.500000
vt 0.500000 0.225369
vt 0.444445 0.225369
vt 0.444445 0.169027
vt 0.611111 0.225369
vt 0.666667 0.225369
vt 0.666667 0.281711
vt 0.277778 0.225369
vt 0.222222 0.225369
vt 0.222222 0.169027
vt 0.166667 0.000000
vt 0.222222 0.000000
vt 0.222222 0.056342
vt 0.277778 0.394396
vt 0.277778 0.450738
vt 0.222222 0.450738
vt 0.222222 0.586867
vt 0.222222 0.643209
vt 0.166667 0.643209
vt 0.111111 0.586867
vt 0.111111 0.643209
vt 0.055556 0.643209
vt 0.777778 0.617733
vt 0.833333 0.617733
vt 0.833333 0.784729
vt 0.222222 0.474182
vt 0.222222 0.530525
vt 0.166667 0.530525
vt 0.277778 0.338053
vt 0.222222 0.338053
vt 0.222222 0.281711
vt 0.111111 0.877629
vt 0.111111 0.919980
vt 0.055556 0.919980
vt 0.388889 0.450738
vt 0.333333 0.450738
vt 0.333333 0.394396
vt 0.166667 0.112684
vt 0.222222 0.112684
vt 0.388889 0.684508
vt 0.444445 0.450738
vt 0.055556 0.000000
vt 0.111111 0.000000
vt 0.111111 0.056342
vt 0.277778 0.112685
vt 0.666667 0.684508
vt 0.722222 0.684508
vt 0.722222 0.823381
vt 0.388889 0.225369
vt 0.333333 0.225369
vt 0.333333 0.169027
vt 0.611111 0.394396
vt 0.611111 0.338053
vt 0.666667 0.338053
vt 0.555556 0.684508
vt 0.555556 0.750872
vt 0.500000 0.750872
vt 0.500000 0.281711
vt 0.555556 0.225369
vt 0.500000 0.112684
vt 0.444445 0.112684
vt 0.444445 0.056342
vt 0.888889 0.643209
vt 0.888889 0.835680
vt 0.833333 0.835680
vt 0.888889 0.450738
vt 0.833333 0.643209
vt 0.277778 0.643209
vt 0.666667 0.112684
vt 0.666667 0.169027
vt 0.611111 0.169027
vt 0.611111 0.000000
vt 0.611111 0.056342
vt 0.555556 0.056342
vt 0.666667 0.056342
vt 0.611111 0.112684
vt 0.500000 0.056342
vt 0.444445 0.000000
vt 0.555556 0.000000
vt 0.555556 0.112684
vt 0.965751 0.056342
vt 0.900314 0.056342
vt 0.900314 0.000000
vt 0.444445 0.281711
vt 0.500000 0.338053
vt 0.500000 0.394396
vt 0.555556 0.394396
vt 0.555556 0.450738
vt 0.444445 0.394396
vt 0.500000 0.450738
vt 0.444445 0.338053
vt 0.666667 0.394396
vt 0.666667 0.450738
vt 0.611111 0.450738
vt 0.954326 0.436457
vt 0.888889 0.436457
vt 0.888889 0.380114
vt 0.555556 0.980744
vt 0.555556 0.841871
vt 0.611111 0.841871
vt 0.388889 0.169027
vt 0.388889 0.112684
vt 0.388889 0.056342
vt 0.333333 0.056342
vt 0.333333 0.000000
vt 0.388889 0.000000
vt 0.277778 0.056342
vt 0.277778 0.000000
vt 0.333333 0.112684
vt 0.722222 0.000000
vt 0.777778 0.000000
vt 0.777778 0.233770
vt 0.000000 0.056342
vt 0.055556 0.056342
vt 0.055556 0.112685
vt 0.000000 0.000000
vt 0.055556 0.169027
vt 0.111111 0.169027
vt 0.111111 0.225369
vt 0.000000 0.169027
vt 0.055556 0.225369
vt 0.000000 0.112685
vt 0.166667 0.169027
vt 0.166667 0.225369
vt 0.722222 0.827080
vt 0.722222 0.784729
vt 0.777778 0.784729
vt 0.388889 0.394396
vt 0.388889 0.338053
vt 0.388889 0.281711
vt 0.333333 0.281711
vt 0.277778 0.281711
vt 0.858555 0.018616
vt 0.900314 0.018616
vt 0.900314 0.074959
vt 0.722222 0.617733
vt 0.722222 0.450738
vt 0.777778 0.450738
vt 0.166667 0.417840
vt 0.166667 0.474182
vt 0.111111 0.474182
vt 0.222222 0.417840
vt 0.055556 0.474182
vt 0.055556 0.530525
vt 0.000000 0.530525
vt 0.055556 0.417840
vt 0.000000 0.474182
vt 0.111111 0.417840
vt 0.055556 0.586867
vt 0.000000 0.643209
vt 0.000000 0.586867
vt 0.178092 0.643209
vt 0.178092 0.810205
vt 0.122537 0.810205
vt 0.166667 0.586867
vt 0.289203 0.810205
vt 0.289203 0.643209
vt 0.344759 0.643209
vt 0.222222 0.394396
vt 0.000000 0.877629
vt 0.055556 0.877629
vt 0.166667 0.056342
vt 0.444445 0.684508
vt 0.277778 0.169027
vt 0.944445 0.835680
vt 0.944445 0.974553
vt 0.888889 0.974553
vt 0.611111 0.281711
vt 0.965751 0.112684
vt 0.900314 0.112684
vt 0.500000 0.169027
vt 0.944444 0.131301
vt 0.944444 0.323772
vt 0.888889 0.323772
vt 0.555556 0.169027
vt 0.444445 0.841871
vt 0.444445 0.898213
vt 0.388889 0.898213
vt 0.500000 0.841871
vt 0.500000 0.898213
vt 0.444445 0.954556
vt 0.388889 0.954556
vt 0.500000 0.954556
vt 0.233648 0.810205
vt 0.233648 0.643209
vt 0.833333 0.450738
vt 0.611111 0.750872
vt 0.611111 0.936066
vt 0.611111 0.879723
vt 0.666667 0.879723
vt 0.722222 0.879723
vt 0.666667 0.823381
vt 0.611111 0.823381
vt 0.444445 0.775508
vt 0.500000 0.775508
vt 0.954326 0.380114
vt 0.611111 0.684508
vt 0.388889 0.841871
vt 0.388889 0.775508
vt 0.833333 0.382858
vt 0.833333 0.326516
vt 0.888889 0.326516
vt 0.777778 0.382858
vt 0.777778 0.326516
vt 0.833333 0.270174
vt 0.777778 0.270174
vt 0.080777 0.739366
vt 0.122537 0.739366
vt 0.122537 0.795708
vt 0.858555 0.074959
vt 0.900314 0.131301
vt 0.080777 0.683023
vt 0.122537 0.683023
vt 0.858555 0.000000
vt 0.000000 0.919980
vt 0.055556 0.976322
vt 0.777778 1.000000
vt 0.777778 0.909001
vt 0.833333 0.909001
vt 0.500000 0.684508
vt 0.722222 1.000000
vt 0.777778 0.875159
vt 0.833333 0.875159
vt 0.000000 0.683023
vt 0.033369 0.683023
vt 0.033369 0.739366
vt 0.777778 0.074959
vt 0.811147 0.074959
vt 0.811147 0.131301
vt 0.000000 0.739366
vt 0.033369 0.795708
vt 0.055556 0.795708
vt 0.055556 0.829549
vt 0.000000 0.829549
vt 0.777778 0.018616
vt 0.811147 0.018616
vt 0.722222 0.909001
vt 0.722222 0.875159
vt 0.111111 0.795708
vt 0.111111 0.829549
vt 0.777778 0.827080
vt 0.833333 0.827080
vt 0.384017 0.755894
vt 0.384017 0.812236
vt 0.344759 0.812236
vt 0.102964 0.976322
vt 0.817036 0.449554
vt 0.777778 0.449554
vt 0.777778 0.401475
vt 0.344759 0.755894
vt 0.344759 0.699551
vt 0.384017 0.699551
vt 0.033369 0.643209
vt 0.386518 0.699551
vt 0.685023 0.402797
vt 0.685023 0.445148
vt 0.666667 0.445148
vt 0.363115 0.868578
vt 0.344759 0.868578
vt 0.888889 0.382858
vt 0.888889 0.401475
vt 0.833333 0.401475
vt 0.122537 0.866547
vt 0.178092 0.866547
vt 0.178092 0.922889
vt 0.233648 0.866547
vt 0.233648 0.922889
vt 0.722222 0.233770
vt 0.666667 0.233770
vt 0.344759 0.866547
vt 0.289203 0.866547
vt 0.344759 0.922889
vt 0.289203 0.922889
vt 0.833333 0.974553
vt 0.777778 0.131301
vt 0.833333 0.131301
vt 0.500000 0.980744
vt 0.888889 0.131301
vt 0.777778 0.290113
vt 0.722222 0.290113
vt 0.777778 0.346455
vt 0.777778 0.402797
vt 0.722222 0.402797
vt 0.722222 0.346455
vt 0.666667 0.346455
vt 0.666667 0.290113
vt 0.944445 0.643209
vt 0.333333 0.643209
vt 1.000000 0.131301
vt 1.000000 0.323772
vt 0.944445 0.450738
vt 0.555556 0.281711
vt 0.666667 0.000000
vt 0.500000 0.000000
vt 0.965751 0.000000
vt 0.611111 0.980744
vt 0.000000 0.225369
vt 0.000000 0.417840
vt 0.122537 0.643209
vt 0.344759 0.810205
vt 0.666667 0.936066
vt 0.954326 0.323772
vt 0.888889 0.270174
vt 0.080777 0.795708
vt 0.858555 0.131301
vt 0.000000 0.976322
vt 0.833333 1.000000
vt 0.000000 0.795708
vt 0.102964 0.919980
vt 0.817036 0.401475
vt 0.080777 0.643209
vt 0.386518 0.643209
vt 0.666667 0.402797
vt 0.363115 0.812236
vt 0.122537 0.922889
vt 0.388889 0.643209
vn 0.000000 -1.000000 0.000000
vn 0.000000 1.000000 0.000000
vn 1.000000 0.000000 0.000000
vn -0.000000 0.000000 1.000000
vn -1.000000 -0.000000 -0.000000
vn 0.000000 0.000000 -1.000000
s off
f 30/1/1 3/2/1 44/3/1
f 50/4/2 7/5/2 37/6/2
f 35/7/3 6/8/3 31/9/3
f 37/10/4 7/11/4 33/12/4
f 94/13/5 38/14/5 8/15/5
f 28/16/6 4/17/6 46/18/6
f 51/19/6 16/20/6 34/21/6
f 54/22/1 93/23/1 107/24/1
f 40/25/6 10/26/6 54/27/6
f 55/28/5 16/29/5 46/30/5
f 138/31/6 122/32/6 118/33/6
f 50/34/5 20/35/5 58/36/5
f 59/37/4 15/38/4 45/9/4
f 85/39/1 157/34/1 155/40/1
f 49/41/4 19/42/4 62/43/4
f 63/44/3 13/38/3 43/12/3
f 66/45/2 96/46/2 166/47/2
f 47/48/3 17/49/3 66/50/3
f 80/51/2 67/52/2 19/53/2
f 69/54/3 111/55/3 114/56/3
f 78/57/2 38/1/2 20/58/2
f 71/59/1 14/60/1 32/61/1
f 74/62/5 171/63/5 168/64/5
f 71/65/5 172/62/5 176/66/5
f 75/67/3 174/14/3 169/35/3
f 9/68/1 27/69/1 75/70/1
f 27/69/1 2/5/1 42/4/1
f 40/71/1 76/72/1 73/73/1
f 39/74/1 76/72/1 40/71/1
f 39/74/1 9/68/1 72/75/1
f 77/76/1 32/61/1 4/77/1
f 10/78/1 73/73/1 77/76/1
f 73/73/1 26/79/1 71/59/1
f 70/80/5 109/81/5 112/82/5
f 36/83/2 78/57/2 68/84/2
f 36/83/2 8/2/2 38/1/2
f 79/85/2 69/86/2 17/87/2
f 48/88/2 79/85/2 47/89/2
f 18/90/2 68/84/2 79/85/2
f 80/51/2 49/91/2 6/92/2
f 69/86/2 80/51/2 35/93/2
f 80/94/4 114/95/4 110/96/4
f 24/97/1 160/98/1 162/99/1
f 29/3/3 81/100/3 64/101/3
f 5/2/3 47/48/3 81/100/3
f 82/102/3 65/103/3 9/104/3
f 41/61/3 82/102/3 39/105/3
f 11/60/3 64/101/3 82/102/3
f 83/106/3 43/12/3 2/11/3
f 65/103/3 83/106/3 27/107/3
f 24/108/3 63/44/3 83/106/3
f 62/109/2 95/110/2 159/111/2
f 31/112/4 84/113/4 60/114/4
f 6/115/4 49/41/4 84/113/4
f 85/116/4 61/117/4 12/118/4
f 43/119/4 85/116/4 42/120/4
f 13/121/4 60/114/4 85/116/4
f 86/122/4 45/9/4 3/8/4
f 61/117/4 86/122/4 30/123/4
f 60/54/3 151/87/3 157/93/3
f 137/124/4 120/125/4 25/126/4
f 33/88/5 87/127/5 56/128/5
f 7/40/5 50/34/5 87/127/5
f 88/129/5 57/130/5 14/49/5
f 45/83/5 88/129/5 44/48/5
f 15/90/5 56/128/5 88/129/5
f 89/131/5 46/30/5 4/8/5
f 14/49/5 57/130/5 89/131/5
f 135/132/1 121/133/1 119/134/1
f 91/135/2 105/136/2 103/137/2
f 41/138/6 90/139/6 52/140/6
f 1/141/6 40/25/6 90/139/6
f 91/142/6 53/143/6 18/144/6
f 29/145/6 91/142/6 48/146/6
f 11/147/6 52/140/6 91/142/6
f 92/148/6 34/21/6 8/149/6
f 53/143/6 92/148/6 36/150/6
f 51/151/5 102/152/5 107/153/5
f 51/19/6 93/154/6 46/18/6
f 52/155/3 99/156/3 105/157/3
f 10/26/6 28/16/6 93/154/6
f 94/13/5 34/158/5 16/29/5
f 141/159/6 136/160/6 118/33/6
f 58/36/5 20/35/5 38/14/5
f 95/161/4 33/12/4 15/38/4
f 61/162/1 155/40/1 158/89/1
f 19/42/4 37/10/4 95/161/4
f 96/163/3 31/9/3 13/38/3
f 65/164/4 163/165/4 160/166/4
f 17/49/3 35/7/3 96/163/3
f 97/167/2 37/6/2 19/53/2
f 97/168/5 115/169/5 109/81/5
f 20/58/2 50/4/2 97/167/2
f 98/170/1 44/3/1 14/60/1
f 73/171/5 173/172/5 170/173/5
f 74/174/1 12/58/1 30/1/1
f 99/175/6 100/176/6 103/177/6
f 104/178/6 101/179/6 100/176/6
f 100/176/6 102/180/6 106/181/6
f 101/179/6 107/182/6 102/180/6
f 90/183/3 104/184/3 99/156/3
f 92/184/5 106/183/5 102/152/5
f 54/22/1 101/126/1 104/125/1
f 53/22/2 103/137/2 106/185/2
f 113/186/3 126/99/3 125/98/3
f 112/187/2 109/188/2 108/189/2
f 111/190/2 108/189/2 110/191/2
f 109/188/2 115/192/2 110/191/2
f 68/175/6 21/193/6 113/194/6
f 67/195/4 110/96/4 115/173/4
f 79/196/3 113/186/3 111/55/3
f 78/197/6 112/198/6 21/193/6
f 25/199/5 116/200/5 119/201/5
f 25/199/5 120/202/5 117/203/5
f 119/201/5 116/200/5 118/204/5
f 116/200/5 117/203/5 123/205/5
f 139/206/2 117/207/2 120/208/2
f 140/209/1 119/134/1 122/210/1
f 141/211/2 123/212/2 117/207/2
f 135/132/1 147/213/1 148/82/1
f 22/214/2 124/33/2 125/215/2
f 108/216/5 124/217/5 22/218/5
f 21/193/6 22/162/6 126/219/6
f 111/217/4 125/216/4 124/220/4
f 56/217/4 132/221/4 128/222/4
f 94/223/2 129/224/2 134/225/2
f 57/226/1 127/227/1 133/228/1
f 58/229/2 134/225/2 131/230/2
f 55/231/6 130/232/6 129/233/6
f 88/234/1 128/235/1 127/227/1
f 87/236/4 131/237/4 132/221/4
f 89/238/6 133/239/6 130/232/6
f 132/221/4 142/240/4 135/241/4
f 129/224/2 141/211/2 139/206/2
f 133/228/1 127/227/1 140/209/1
f 131/230/2 134/225/2 139/206/2
f 129/242/3 130/243/3 145/244/3
f 128/235/1 135/132/1 140/209/1
f 132/221/4 131/237/4 137/124/4
f 133/239/6 138/31/6 136/160/6
f 145/245/6 146/215/6 143/33/6
f 136/246/1 146/247/1 145/248/1
f 136/249/5 141/250/5 143/251/5
f 141/211/2 129/224/2 144/252/2
f 150/253/4 149/250/4 148/157/4
f 142/254/2 25/255/2 149/256/2
f 142/257/3 150/258/3 147/244/3
f 121/259/5 148/260/5 149/261/5
f 151/262/4 152/263/4 155/264/4
f 156/153/4 153/152/4 152/263/4
f 152/263/4 154/265/4 158/266/4
f 153/152/4 159/183/4 154/265/4
f 59/92/5 154/45/5 159/196/5
f 84/219/3 156/89/3 151/87/3
f 86/136/5 158/46/5 154/45/5
f 62/109/2 153/267/2 156/268/2
f 23/269/3 160/270/3 163/155/3
f 164/271/3 161/272/3 160/270/3
f 161/272/3 166/266/3 162/265/3
f 65/166/1 82/273/1 165/64/1
f 81/205/6 164/274/6 23/275/6
f 81/196/2 66/45/2 161/191/2
f 63/98/4 162/97/4 166/276/4
f 64/204/6 23/275/6 165/277/6
f 169/278/1 170/279/1 173/267/1
f 174/280/1 167/281/1 168/282/1
f 169/278/1 174/280/1 171/283/1
f 171/283/1 176/284/1 172/285/1
f 26/63/6 170/62/6 172/286/6
f 42/17/3 167/15/3 174/14/3
f 72/287/3 169/35/3 175/34/3
f 12/118/4 168/147/4 167/145/4
f 76/288/6 175/289/6 173/172/6
f 98/290/4 176/286/4 171/62/4
f 98/170/1 30/1/1 44/3/1
f 97/167/2 50/4/2 37/6/2
f 96/163/3 35/7/3 31/9/3
f 95/161/4 37/10/4 33/12/4
f 34/158/5 94/13/5 8/15/5
f 93/154/6 28/16/6 46/18/6
f 92/148/6 51/19/6 34/21/6
f 101/126/1 54/22/1 107/24/1
f 90/139/6 40/25/6 54/27/6
f 89/131/5 55/28/5 46/30/5
f 136/160/6 138/31/6 118/33/6
f 87/127/5 50/34/5 58/36/5
f 86/122/4 59/37/4 45/9/4
f 61/162/1 85/39/1 155/40/1
f 84/113/4 49/41/4 62/43/4
f 83/106/3 63/44/3 43/12/3
f 161/191/2 66/45/2 166/47/2
f 81/100/3 47/48/3 66/50/3
f 49/91/2 80/51/2 19/53/2
f 80/219/3 69/54/3 114/56/3
f 70/291/2 78/57/2 20/58/2
f 77/76/1 71/59/1 32/61/1
f 12/66/5 74/62/5 168/64/5
f 98/185/5 71/65/5 176/66/5
f 72/287/3 75/67/3 169/35/3
f 72/75/1 9/68/1 75/70/1
f 75/70/1 27/69/1 42/4/1
f 10/78/1 40/71/1 73/73/1
f 1/292/1 39/74/1 40/71/1
f 76/72/1 39/74/1 72/75/1
f 28/293/1 77/76/1 4/77/1
f 28/293/1 10/78/1 77/76/1
f 77/76/1 73/73/1 71/59/1
f 78/294/5 70/80/5 112/82/5
f 18/90/2 36/83/2 68/84/2
f 78/57/2 36/83/2 38/1/2
f 47/89/2 79/85/2 17/87/2
f 5/40/2 48/88/2 47/89/2
f 48/88/2 18/90/2 79/85/2
f 35/93/2 80/51/2 6/92/2
f 17/87/2 69/86/2 35/93/2
f 67/195/4 80/94/4 110/96/4
f 63/295/1 24/97/1 162/99/1
f 11/60/3 29/3/3 64/101/3
f 29/3/3 5/2/3 81/100/3
f 39/105/3 82/102/3 9/104/3
f 1/77/3 41/61/3 39/105/3
f 41/61/3 11/60/3 82/102/3
f 27/107/3 83/106/3 2/11/3
f 9/104/3 65/103/3 27/107/3
f 65/103/3 24/108/3 83/106/3
f 153/267/2 62/109/2 159/111/2
f 13/121/4 31/112/4 60/114/4
f 31/112/4 6/115/4 84/113/4
f 42/120/4 85/116/4 12/118/4
f 2/296/4 43/119/4 42/120/4
f 43/119/4 13/121/4 85/116/4
f 30/123/4 86/122/4 3/8/4
f 12/118/4 61/117/4 30/123/4
f 85/196/3 60/54/3 157/93/3
f 142/240/4 137/124/4 25/126/4
f 15/90/5 33/88/5 56/128/5
f 33/88/5 7/40/5 87/127/5
f 44/48/5 88/129/5 14/49/5
f 3/2/5 45/83/5 44/48/5
f 45/83/5 15/90/5 88/129/5
f 32/7/5 89/131/5 4/8/5
f 32/7/5 14/49/5 89/131/5
f 140/209/1 135/132/1 119/134/1
f 53/22/2 91/135/2 103/137/2
f 11/147/6 41/138/6 52/140/6
f 41/138/6 1/141/6 90/139/6
f 48/146/6 91/142/6 18/144/6
f 5/297/6 29/145/6 48/146/6
f 29/145/6 11/147/6 91/142/6
f 36/150/6 92/148/6 8/149/6
f 18/144/6 53/143/6 36/150/6
f 93/298/5 51/151/5 107/153/5
f 16/20/6 51/19/6 46/18/6
f 91/299/3 52/155/3 105/157/3
f 54/27/6 10/26/6 93/154/6
f 55/28/5 94/13/5 16/29/5
f 123/214/6 141/159/6 118/33/6
f 94/13/5 58/36/5 38/14/5
f 59/37/4 95/161/4 15/38/4
f 86/219/1 61/162/1 158/89/1
f 62/43/4 19/42/4 95/161/4
f 63/44/3 96/163/3 13/38/3
f 24/63/4 65/164/4 160/166/4
f 66/50/3 17/49/3 96/163/3
f 67/52/2 97/167/2 19/53/2
f 70/80/5 97/168/5 109/81/5
f 70/291/2 20/58/2 97/167/2
f 71/59/1 98/170/1 14/60/1
f 26/277/5 73/171/5 170/173/5
f 98/170/1 74/174/1 30/1/1
f 105/197/6 99/175/6 103/177/6
f 99/175/6 104/178/6 100/176/6
f 103/177/6 100/176/6 106/181/6
f 100/176/6 101/179/6 102/180/6
f 52/155/3 90/183/3 99/156/3
f 51/151/5 92/184/5 102/152/5
f 90/135/1 54/22/1 104/125/1
f 92/23/2 53/22/2 106/185/2
f 111/55/3 113/186/3 125/98/3
f 21/300/2 112/187/2 108/189/2
f 114/47/2 111/190/2 110/191/2
f 108/189/2 109/188/2 110/191/2
f 79/178/6 68/175/6 113/194/6
f 97/301/4 67/195/4 115/173/4
f 69/54/3 79/196/3 111/55/3
f 68/175/6 78/197/6 21/193/6
f 121/259/5 25/199/5 119/201/5
f 116/200/5 25/199/5 117/203/5
f 122/302/5 119/201/5 118/204/5
f 118/204/5 116/200/5 123/205/5
f 137/303/2 139/206/2 120/208/2
f 138/304/1 140/209/1 122/210/1
f 139/206/2 141/211/2 117/207/2
f 121/133/1 135/132/1 148/82/1
f 126/305/2 22/214/2 125/215/2
f 21/306/5 108/216/5 22/218/5
f 113/194/6 21/193/6 126/219/6
f 108/236/4 111/217/4 124/220/4
f 88/218/4 56/217/4 128/222/4
f 58/229/2 94/223/2 134/225/2
f 89/274/1 57/226/1 133/228/1
f 87/307/2 58/229/2 131/230/2
f 94/307/6 55/231/6 129/233/6
f 57/226/1 88/234/1 127/227/1
f 56/217/4 87/236/4 132/221/4
f 55/231/6 89/238/6 130/232/6
f 128/222/4 132/221/4 135/241/4
f 134/225/2 129/224/2 139/206/2
f 138/304/1 133/228/1 140/209/1
f 137/303/2 131/230/2 139/206/2
f 144/249/3 129/242/3 145/244/3
f 127/227/1 128/235/1 140/209/1
f 142/240/4 132/221/4 137/124/4
f 130/232/6 133/239/6 136/160/6
f 144/308/6 145/245/6 143/33/6
f 130/309/1 136/246/1 145/248/1
f 146/242/5 136/249/5 143/251/5
f 143/310/2 141/211/2 144/252/2
f 147/311/4 150/253/4 148/157/4
f 150/312/2 142/254/2 149/256/2
f 135/313/3 142/257/3 147/244/3
f 25/199/5 121/259/5 149/261/5
f 157/314/4 151/262/4 155/264/4
f 151/262/4 156/153/4 152/263/4
f 155/264/4 152/263/4 158/266/4
f 152/263/4 153/152/4 154/265/4
f 95/93/5 59/92/5 159/196/5
f 60/54/3 84/219/3 151/87/3
f 59/92/5 86/136/5 154/45/5
f 84/292/2 62/109/2 156/268/2
f 165/299/3 23/269/3 163/155/3
f 23/269/3 164/271/3 160/270/3
f 160/270/3 161/272/3 162/265/3
f 163/63/1 65/166/1 165/64/1
f 64/204/6 81/205/6 23/275/6
f 164/192/2 81/196/2 161/191/2
f 96/178/4 63/98/4 166/276/4
f 82/302/6 64/204/6 165/277/6
f 175/111/1 169/278/1 173/267/1
f 171/283/1 174/280/1 168/282/1
f 170/279/1 169/278/1 171/283/1
f 170/279/1 171/283/1 172/285/1
f 71/164/6 26/63/6 172/286/6
f 75/67/3 42/17/3 174/14/3
f 76/315/3 72/287/3 175/34/3
f 42/120/4 12/118/4 167/145/4
f 73/171/6 76/288/6 173/172/6
f 74/65/4 98/290/4 171/62/4
